<svg width="175" height="154" viewBox="0 0 175 154" fill="none" xmlns="http://www.w3.org/2000/svg">
<path fill-rule="evenodd" clip-rule="evenodd" d="M82.0465 0.00830363C82.2757 0.0465175 83.3457 3.2947 84.4539 7.1543C85.5621 11.0139 87.5875 17.7013 91.4853 29.8533L90.2242 30.7705C89.4981 31.3054 87.855 32.834 84.2246 36.7318L81.0529 31.5729C79.3333 28.7451 76.4672 24.0066 74.7094 21.0641C72.9515 18.1217 71.3466 15.4467 71.1555 15.141C70.9262 14.8353 70.4677 14.0328 70.0855 13.3449C69.4359 12.1603 69.4359 12.1221 70.7734 9.90569C71.4994 8.68285 73.2955 6.46644 74.7858 4.9761C76.2762 3.48576 78.4161 1.72793 79.5625 1.07829C80.709 0.390443 81.8172 -0.0681241 82.0465 0.00830363ZM63.4363 5.96967C63.6656 5.96967 64.3534 6.8868 64.8884 7.95678C65.4616 9.06499 67.0284 11.9692 68.4041 14.3767C69.7798 16.7842 72.5312 21.4463 74.5183 24.6945C75.7832 26.762 77.528 29.5883 79.1024 32.1384L79.1044 32.1416L79.1061 32.1444C80.0037 33.5983 80.8457 34.9621 81.5115 36.044C83.3839 39.0629 84.9889 41.5085 85.1036 41.5085C85.2182 41.5085 85.18 40.7825 85.0653 39.8653C84.8743 38.2986 84.9125 38.2222 87.0907 36.1586C88.3135 35.0122 90.2624 33.5601 91.4088 32.9869C92.5553 32.4137 94.3895 31.8404 95.4213 31.7258C96.6441 31.5729 98.0581 31.6876 99.4338 32.0697C100.58 32.3754 102.3 33.2161 103.217 33.9422C104.21 34.6683 105.472 36.1968 106.274 37.6107C107.535 39.8271 107.841 40.1329 109.943 40.9736C111.204 41.4703 112.503 42.1582 112.809 42.4639C113.229 42.9225 113.267 43.2282 112.961 43.7249C112.732 44.0689 111.548 44.7567 110.286 45.1771C108.07 45.9796 108.032 46.0178 107.803 47.661C107.65 48.5781 107.268 50.3742 106.885 51.6352C106.542 52.8963 105.472 55.3802 104.554 57.1762C103.637 58.9723 102.032 61.5326 101.001 62.9083C100.007 64.284 97.7906 66.6915 96.1091 68.2582C94.4277 69.825 91.6763 71.9268 90.0331 72.9203C88.3899 73.9521 85.3711 75.3278 83.3839 76.0539C81.3968 76.7799 77.9576 77.6588 75.7412 78.0028C72.5694 78.5378 70.5441 78.6524 66.1877 78.4613C63.0542 78.3085 59.0799 77.8881 57.0164 77.4678C55.0293 77.0474 51.59 76.1685 49.3736 75.5189C47.1572 74.831 45.0554 74.0285 44.6733 73.6846C44.2912 73.3407 43.9855 72.6146 43.9855 72.0796C43.9855 71.5446 44.2147 70.9332 44.4822 70.6657C44.7497 70.4364 47.9979 68.7168 51.6664 66.8443C53.9994 65.6535 56.9196 64.0764 59.405 62.6633C59.3416 62.9592 59.5649 63.5567 59.9206 64.0547C60.341 64.5897 61.067 65.0483 61.5256 65.0865C61.946 65.1629 62.3281 65.0483 62.3281 64.819C62.3281 64.5897 61.9842 64.284 61.5638 64.0547C61.1435 63.8254 60.7231 63.3287 60.6085 62.9083C60.5226 62.5934 60.3724 62.3214 60.2061 62.2048C61.3063 61.5706 62.2895 60.9844 63.0542 60.5008C65.6145 58.8959 67.8309 57.3291 67.9455 57.0616C68.0984 56.7941 67.7545 56.2973 67.1048 55.8387C66.4934 55.4184 65.0031 54.1573 63.742 52.9727C62.5192 51.8263 60.7995 49.8392 59.9588 48.5781C59.0799 47.3171 57.8571 45.0624 57.1692 43.6103C56.4814 42.1582 55.4496 39.2921 54.9146 37.305C54.1886 34.6683 53.8446 32.3372 53.6918 28.898C53.5389 25.3059 53.6153 23.357 54.1121 21.0641C54.456 19.2681 55.4114 16.5549 56.4432 14.4531C57.666 11.931 58.8506 10.2496 60.5703 8.45357C61.8695 7.07787 63.1688 5.96967 63.4363 5.96967ZM114.719 21.6373C114.872 21.6373 114.949 22.2105 114.834 22.8602C114.758 23.548 114.108 26.1466 113.458 28.6305C112.732 31.3437 112.044 33.1015 111.777 33.1015C111.509 33.1015 111.28 32.8722 111.28 32.6047C111.28 32.3754 111.777 30.3501 112.426 28.1337C112.532 27.7724 112.639 27.4071 112.745 27.0457C113.288 25.1896 113.801 23.4359 113.993 22.8602C114.223 22.2105 114.528 21.6373 114.719 21.6373ZM128.4 24.7327C128.629 24.6945 128.858 24.8473 128.858 25.0766C128.858 25.3059 127.597 26.5669 126.107 27.9044C124.578 29.2801 122.209 31.2672 120.834 32.3754C119.458 33.4454 117.967 34.5918 117.509 34.8593C117.012 35.1651 116.439 35.3561 116.171 35.3179C115.942 35.2415 118.464 32.834 121.827 29.968C125.152 27.1019 128.132 24.7327 128.4 24.7327ZM124.043 40.8971C127.444 41.0882 130.463 41.3175 130.769 41.4321C131.189 41.585 131.075 41.7378 130.387 41.8907C129.852 42.0435 126.795 42.0818 123.623 42.0053C118.464 41.8907 117.776 41.8143 117.853 41.2793C117.891 40.7061 118.502 40.6678 124.043 40.8971ZM121.903 48.6927C123.776 49.6863 125.687 50.7563 126.222 51.1002C126.718 51.4441 127.062 51.8645 126.948 52.0174C126.833 52.132 126.069 52.0556 125.228 51.8263C124.387 51.5588 122.362 50.6034 120.757 49.6863C118.426 48.387 117.853 47.8903 118.159 47.4699C118.426 47.0113 119.114 47.2406 121.903 48.6927ZM115.598 51.4441C115.827 51.4059 116.859 52.7434 117.853 54.3866C118.846 56.0298 120.184 57.9787 120.795 58.7048C121.598 59.6219 121.827 60.1569 121.56 60.4244C121.292 60.6919 120.528 60.1187 119.229 58.7048C118.159 57.5584 116.783 55.6095 116.21 54.4248C115.598 53.202 115.101 52.0556 115.101 51.8263C115.101 51.597 115.331 51.4441 115.598 51.4441ZM78.4161 5.35825C78.3779 6.27538 78.6454 7.00144 79.1422 7.49822C79.5626 7.91858 80.0593 8.2625 80.2886 8.2625C80.4797 8.2625 80.6708 7.95679 80.6708 7.57465C80.6708 7.23073 80.5179 6.77216 80.3268 6.54288C80.1358 6.31359 79.9065 5.74039 79.83 5.20539C79.7918 4.6704 79.4479 4.21183 79.0658 4.1354C78.6072 4.02076 78.4544 4.32647 78.4161 5.35825ZM75.359 10.8993C75.3208 11.1285 75.7412 12.1603 76.2762 13.2303C76.8112 14.2621 77.3844 15.141 77.6136 15.141C77.8047 15.141 78.0722 14.9881 78.1869 14.7589C78.3015 14.5296 77.9958 13.5742 77.499 12.5425C77.0404 11.5489 76.3908 10.7082 76.0087 10.6318C75.6647 10.5553 75.359 10.67 75.359 10.8993ZM62.3281 11.7017C62.3281 12.1221 62.7485 12.9246 63.2452 13.4978C63.742 14.1092 64.277 14.4914 64.3917 14.3767C64.5063 14.2621 64.2388 13.4596 63.8567 12.5425C63.4363 11.6635 62.9013 10.9375 62.7102 10.9375C62.481 10.9375 62.3281 11.2814 62.3281 11.7017ZM81.244 13.9564C81.3586 14.7971 81.6643 15.9435 81.8936 16.4785C82.1611 17.0135 82.6197 17.4338 82.8489 17.4338C83.1929 17.4338 83.2693 17.0899 83.0782 16.3638C82.9722 15.8335 82.6698 14.8778 82.4436 14.1628L82.3904 13.9946C82.1229 13.2685 81.7025 12.5807 81.4732 12.5042C81.1675 12.3896 81.0911 12.8482 81.244 13.9564ZM65.9584 17.3192C65.7674 17.4338 65.6527 17.8924 65.6909 18.2745C65.7291 18.6567 66.1877 19.4209 66.6845 19.9942C67.1813 20.6056 67.7545 20.9495 67.9455 20.7584C68.0984 20.6056 67.9073 19.6884 67.4488 18.7713C67.0284 17.816 66.5698 17.0517 66.4934 17.0517C66.3788 17.0517 66.1495 17.1663 65.9584 17.3192ZM60.0353 18.7713C60.0353 19.077 60.3028 19.8413 60.6085 20.4909C60.9142 21.1406 61.4492 21.6373 61.7549 21.6373C62.0606 21.6373 62.2899 21.5227 62.2135 21.3316C62.1753 21.1788 61.7931 20.4145 61.3728 19.612C60.9524 18.8477 60.4938 18.1981 60.3028 18.1981C60.1499 18.1981 60.0353 18.4656 60.0353 18.7713ZM78.2633 19.2299C78.1486 19.4209 78.2251 20.0324 78.4161 20.682C78.6072 21.3316 78.9893 22.0577 79.2568 22.3634C79.4861 22.6309 79.9447 22.7456 80.174 22.6309C80.5561 22.4398 80.5179 22.0195 79.9829 20.682C79.639 19.7267 79.1422 18.9624 78.9129 18.9624C78.6836 18.9624 78.4161 19.077 78.2633 19.2299ZM83.9189 20.5674C84.0069 20.8533 84.1455 21.2278 84.2765 21.5817C84.3731 21.8426 84.4655 22.0924 84.5304 22.287C84.7214 22.7838 85.0271 23.2423 85.2564 23.357C85.4475 23.4716 85.715 23.3952 85.8296 23.1659C85.9443 22.9366 85.7914 22.0959 85.5239 21.2552C85.2182 20.1852 84.8361 19.7267 84.3775 19.7267C83.8043 19.7267 83.7279 19.9177 83.9189 20.5674ZM56.8635 24.0066C56.7489 24.5034 56.7871 25.2294 56.94 25.6498C57.131 26.0702 57.5514 26.6816 57.8953 26.9873C58.2392 27.293 58.6214 27.4841 58.736 27.3694C58.8506 27.2548 58.7742 26.2612 58.5449 25.153C58.2774 23.892 57.9335 23.1659 57.5896 23.1659C57.2839 23.1659 56.9782 23.548 56.8635 24.0066ZM63.8567 24.5034C63.8567 24.8091 64.2006 25.8409 64.6209 26.7962C65.1559 28.0191 65.6145 28.5158 66.1495 28.5158C66.5698 28.5158 66.9138 28.4012 66.9138 28.2101C66.9138 28.0573 66.417 27.0255 65.8438 25.9173C65.2706 24.8091 64.5827 23.9302 64.3152 23.9302C64.0859 23.9302 63.8567 24.1977 63.8567 24.5034ZM69.6652 24.3887C69.7798 24.6562 70.3148 25.6116 70.888 26.4905C71.423 27.4076 72.0344 28.1337 72.2637 28.1337C72.4548 28.1337 72.6458 27.828 72.6458 27.4459C72.6458 27.1019 72.1491 26.1466 71.4994 25.3441C70.888 24.5798 70.1619 23.9302 69.8944 23.9302C69.6652 23.9302 69.5505 24.1595 69.6652 24.3887ZM67.8691 32.3372C68.4041 33.369 69.092 34.2479 69.3977 34.2479C69.7034 34.2479 69.9709 34.0186 69.9709 33.7511C69.9327 33.5219 69.5505 32.6429 69.092 31.8404C68.6334 31.038 67.9455 30.4265 67.5634 30.4265C66.952 30.4265 66.9902 30.6176 67.8691 32.3372ZM73.8305 31.3437C73.8305 31.4583 74.1362 32.2608 74.5565 33.1015C74.9769 33.9422 75.5883 34.6301 75.894 34.6301C76.3526 34.6301 76.2762 34.2861 75.5501 32.9869C75.0533 32.1079 74.4419 31.3055 74.2508 31.2672C74.0598 31.1908 73.8687 31.229 73.8305 31.3437ZM59.3092 31.9169C59.271 32.1462 59.6913 32.7958 60.1881 33.369C60.6849 33.9804 61.2581 34.2861 61.4492 34.1333C61.602 33.9804 61.4492 33.369 61.1053 32.7958C60.7613 32.2226 60.2263 31.7258 59.9206 31.6494C59.5767 31.5729 59.3092 31.6876 59.3092 31.9169ZM92.4024 35.3943C91.5617 36.0822 90.8356 37.114 90.5681 37.9547C90.3389 38.7572 90.2624 39.98 90.3771 40.6296C90.4917 41.3175 91.0649 42.4257 91.6381 43.0753C92.2495 43.6867 93.3195 44.4128 94.0456 44.6421C94.7717 44.8714 95.9945 44.9478 96.7206 44.7949C97.4466 44.6421 98.4784 44.2217 99.0134 43.8396C99.5484 43.4575 100.274 42.3875 100.657 41.4703C101.115 40.3621 101.268 39.4068 101.077 38.6425C100.962 37.9929 100.504 37.0375 100.122 36.4261C99.7012 35.8529 98.8605 35.1268 98.2491 34.8211C97.6377 34.5154 96.3766 34.2479 95.4595 34.2479C94.2367 34.2479 93.5106 34.5154 92.4024 35.3943ZM62.9777 37.2668C62.8249 37.4961 63.0542 38.1839 63.4745 38.8336C63.8949 39.4832 64.5827 40.1329 65.0031 40.3621C65.4234 40.5914 65.8438 40.7443 65.9584 40.7443C66.0731 40.7443 66.1495 40.515 66.1495 40.2475C66.1495 40.0182 65.4999 39.1393 64.6974 38.3368C63.7802 37.3815 63.1688 36.9993 62.9777 37.2668ZM70.7734 37.7636C70.7352 38.0311 71.1555 38.6807 71.6905 39.2157C72.2255 39.7507 72.7605 40.0182 72.9133 39.8654C73.1044 39.7125 72.9133 39.1011 72.5694 38.5279C72.2255 37.9547 71.6905 37.4579 71.3848 37.3815C71.0409 37.305 70.7734 37.4579 70.7734 37.7636ZM77.2697 37.9547C77.2315 38.3368 77.4608 38.9864 77.7665 39.4068C78.0722 39.8271 78.4544 40.0182 78.6454 39.8654C78.7983 39.7125 78.7601 39.1011 78.569 38.5661C78.3397 37.9929 77.9958 37.4961 77.7665 37.3815C77.499 37.305 77.3079 37.5725 77.2697 37.9547ZM78.9129 47.126C78.7601 47.2788 78.6454 47.6992 78.6836 48.0813C78.7218 48.4635 79.2186 49.1131 79.7918 49.5335C80.4033 49.992 81.2057 50.336 81.6643 50.2977C82.0847 50.2977 82.5814 50.1831 82.6961 49.992C82.8489 49.8392 82.7343 49.4953 82.4668 49.2278C82.2375 48.9603 81.7025 48.731 81.3204 48.7692C80.9765 48.7692 80.5561 48.4253 80.365 48.0049C80.2122 47.5846 79.9065 47.1642 79.639 47.0496C79.3715 46.9731 79.0658 47.0114 78.9129 47.126ZM85.8678 53.2402C85.7532 53.4313 86.0589 53.9281 86.5175 54.4248C87.0907 55.0363 87.7021 55.2655 88.4664 55.1891C89.0778 55.1127 89.651 54.8452 89.7274 54.5777C89.8039 54.3102 89.4982 54.1191 88.9632 54.1191C88.5046 54.1191 87.7785 53.8898 87.3582 53.5459C86.9378 53.2402 86.4793 52.9727 86.3264 52.9727C86.1735 52.9727 85.9825 53.0874 85.8678 53.2402ZM77.3844 54.5777C77.2315 54.8834 77.5754 55.4948 78.3015 56.1063C78.9893 56.7177 79.9065 57.138 80.365 57.0616C80.8236 57.0234 81.244 56.7559 81.3204 56.4884C81.3968 56.2591 81.0529 55.9534 80.5561 55.8387C80.0976 55.7241 79.3715 55.3038 78.9511 54.8834C78.5308 54.4631 78.0722 54.0809 77.9194 54.1191C77.7665 54.1191 77.5372 54.3484 77.3844 54.5777ZM69.5887 57.5584C69.5887 57.7877 69.7416 58.2844 69.9709 58.7048C70.1619 59.1251 70.8116 59.6219 71.3848 59.813C71.9962 60.0041 72.7223 60.0423 73.028 59.8512C73.3337 59.6983 73.4866 59.3544 73.2955 59.1251C73.1426 58.8959 72.7987 58.7048 72.5312 58.7048C72.3019 58.743 71.6141 58.3991 71.0027 57.9405C70.4294 57.5202 69.8944 57.1762 69.7798 57.1762C69.6652 57.1762 69.5887 57.3291 69.5887 57.5584ZM90.9885 57.6348C90.9503 57.9023 91.256 58.4373 91.6381 58.7812C92.0203 59.1634 92.8992 59.4691 93.5488 59.4691C94.2367 59.4691 94.8099 59.3162 94.8099 59.0869C94.8099 58.8576 94.0838 58.3609 93.1667 57.9405C92.2878 57.5202 91.4471 57.1762 91.256 57.1762C91.1031 57.1762 90.9885 57.4055 90.9885 57.6348ZM83.3839 59.0105C83.04 59.2016 83.0018 59.5073 83.2693 60.0423C83.4604 60.4626 84.11 61.0358 84.7214 61.3415C85.3328 61.609 86.1353 61.7237 86.4793 61.609C86.8614 61.4944 87.1671 61.2269 87.1671 60.9976C87.1671 60.7683 86.7468 60.5391 86.2118 60.4244C85.6768 60.3098 84.9507 59.8894 84.5686 59.5073C84.1864 59.0869 83.6514 58.8576 83.3839 59.0105ZM67.2959 63.0994C67.2959 63.4051 67.6398 64.0165 68.0602 64.4369C68.4805 64.8572 69.1684 65.2011 69.5887 65.2011C70.0091 65.2011 70.353 65.1247 70.353 65.0101C70.353 64.8954 69.818 64.284 69.2066 63.6726C68.5952 63.0612 67.8691 62.5262 67.678 62.5262C67.4488 62.5262 67.2959 62.7937 67.2959 63.0994ZM75.703 62.9083C75.703 63.1376 76.0469 63.6344 76.4672 64.0547C76.8876 64.4751 77.5754 64.819 77.9958 64.819C78.4161 64.819 78.7601 64.7044 78.7601 64.5133C78.7601 64.3604 78.3397 64.0165 77.8047 63.749C77.2697 63.5197 76.8494 63.1376 76.8494 62.9083C76.8494 62.679 76.5819 62.5262 76.2762 62.5262C75.9705 62.5262 75.703 62.679 75.703 62.9083ZM80.7472 66.5386C80.5943 66.8826 80.7854 67.4558 81.244 67.8761C81.6643 68.3347 82.3904 68.6786 82.8489 68.6404C83.3457 68.6404 83.8043 68.5257 83.9189 68.3347C83.9954 68.1818 83.3839 67.6086 82.5432 67.0354C81.2822 66.1565 80.9383 66.0801 80.7472 66.5386ZM56.9782 67.3793C56.94 67.9908 57.2457 68.755 57.6278 69.099C58.0099 69.4811 58.5449 69.7868 58.7742 69.7868C59.0417 69.7868 59.3474 69.6339 59.4621 69.4047C59.5767 69.1754 59.3092 68.6786 58.8889 68.2582C58.4685 67.8379 58.1246 67.2265 58.1246 66.9208C58.1246 66.6151 57.8571 66.3476 57.5514 66.3476C57.1692 66.3476 56.9782 66.7297 56.9782 67.3793ZM64.6209 67.5704C64.6209 67.8379 64.7738 68.2583 64.9266 68.4875C65.0795 68.7168 65.5763 69.099 66.0349 69.3664C66.6081 69.6339 66.9902 69.6339 67.1048 69.4047C67.2195 69.1754 66.8373 68.6022 66.2259 68.0672C65.6527 67.5704 65.0795 67.1118 64.8884 67.1118C64.7356 67.1118 64.6209 67.3411 64.6209 67.5704ZM72.6458 67.685C72.6458 67.9908 72.9898 68.6022 73.4101 69.0225C73.8305 69.4429 74.5183 69.7868 74.9387 69.7868C75.359 69.7868 75.703 69.6339 75.703 69.4047C75.703 69.1754 75.359 68.9461 74.9387 68.8315C74.5183 68.7168 74.098 68.2965 73.9833 67.8761C73.8687 67.4558 73.5248 67.1118 73.2191 67.1118C72.9133 67.1118 72.6458 67.3793 72.6458 67.685Z" fill="url(#paint0_linear_1_12)"/>
<path d="M39.0108 115.251H29.3259C29.1968 114.256 28.9321 113.359 28.5318 112.558C28.1315 111.758 27.602 111.073 26.9434 110.505C26.2849 109.937 25.5036 109.504 24.5997 109.207C23.7087 108.897 22.7208 108.742 21.6361 108.742C19.712 108.742 18.0527 109.214 16.6581 110.156C15.2763 111.099 14.211 112.461 13.462 114.243C12.726 116.025 12.358 118.182 12.358 120.713C12.358 123.347 12.7324 125.555 13.4814 127.337C14.2433 129.107 15.3086 130.443 16.6774 131.347C18.0591 132.238 19.6927 132.684 21.578 132.684C22.6369 132.684 23.5989 132.548 24.4641 132.277C25.3422 132.006 26.1105 131.612 26.7691 131.095C27.4406 130.566 27.9894 129.927 28.4156 129.178C28.8546 128.416 29.1581 127.557 29.3259 126.601L39.0108 126.66C38.843 128.416 38.3329 130.146 37.4806 131.851C36.6413 133.555 35.4855 135.111 34.0134 136.519C32.5413 137.913 30.7464 139.024 28.6286 139.85C26.5238 140.677 24.109 141.09 21.3843 141.09C17.7944 141.09 14.579 140.302 11.7381 138.727C8.91012 137.139 6.67614 134.827 5.03616 131.793C3.39618 128.758 2.57619 125.065 2.57619 120.713C2.57619 116.348 3.40909 112.649 5.0749 109.614C6.7407 106.579 8.99406 104.274 11.835 102.699C14.6759 101.124 17.859 100.336 21.3843 100.336C23.7862 100.336 26.0072 100.672 28.0475 101.343C30.0878 102.002 31.8827 102.97 33.4323 104.249C34.9819 105.514 36.241 107.07 37.2095 108.917C38.1779 110.763 38.7784 112.875 39.0108 115.251ZM52.6056 123.58V140.548H43.1337V100.878H52.2957V116.258H52.6249C53.2964 114.424 54.394 112.991 55.9178 111.958C57.4545 110.925 59.3334 110.408 61.5544 110.408C63.6464 110.408 65.4671 110.873 67.0167 111.803C68.5663 112.72 69.7672 114.017 70.6195 115.696C71.4847 117.375 71.9108 119.338 71.8979 121.585V140.548H62.4261V123.444C62.439 121.791 62.0258 120.5 61.1864 119.57C60.347 118.64 59.1655 118.176 57.6417 118.176C56.6474 118.176 55.7693 118.395 55.0074 118.834C54.2585 119.26 53.6709 119.874 53.2448 120.674C52.8315 121.475 52.6185 122.443 52.6056 123.58ZM76.4469 140.548V110.796H85.9188V140.548H76.4469ZM81.1925 107.328C79.8625 107.328 78.7197 106.889 77.7641 106.011C76.8085 105.12 76.3307 104.048 76.3307 102.796C76.3307 101.556 76.8085 100.497 77.7641 99.6192C78.7197 98.7282 79.8625 98.2827 81.1925 98.2827C82.5355 98.2827 83.6783 98.7282 84.621 99.6192C85.5766 100.497 86.0544 101.556 86.0544 102.796C86.0544 104.048 85.5766 105.12 84.621 106.011C83.6783 106.889 82.5355 107.328 81.1925 107.328ZM90.584 140.548V110.796H99.7847V116.219H100.095C100.637 114.256 101.522 112.797 102.748 111.842C103.975 110.873 105.402 110.389 107.029 110.389C107.468 110.389 107.92 110.421 108.385 110.486C108.85 110.537 109.282 110.621 109.683 110.738V118.97C109.231 118.815 108.637 118.692 107.901 118.602C107.177 118.511 106.532 118.466 105.964 118.466C104.84 118.466 103.827 118.718 102.923 119.221C102.032 119.712 101.328 120.403 100.811 121.294C100.308 122.172 100.056 123.205 100.056 124.393V140.548H90.584ZM112.178 151.705V110.796H121.553V115.89H121.844C122.231 114.986 122.78 114.114 123.49 113.275C124.214 112.436 125.13 111.751 126.241 111.222C127.364 110.679 128.707 110.408 130.27 110.408C132.336 110.408 134.267 110.951 136.061 112.035C137.869 113.12 139.329 114.792 140.439 117.052C141.55 119.312 142.105 122.192 142.105 125.691C142.105 129.061 141.569 131.883 140.497 134.156C139.438 136.428 138.005 138.133 136.197 139.269C134.402 140.406 132.407 140.974 130.212 140.974C128.714 140.974 127.416 140.728 126.318 140.238C125.221 139.747 124.298 139.101 123.549 138.301C122.813 137.5 122.244 136.641 121.844 135.725H121.65V151.705H112.178ZM121.457 125.672C121.457 127.273 121.67 128.668 122.096 129.856C122.535 131.044 123.161 131.967 123.975 132.625C124.801 133.271 125.789 133.594 126.938 133.594C128.1 133.594 129.088 133.271 129.902 132.625C130.715 131.967 131.329 131.044 131.742 129.856C132.168 128.668 132.381 127.273 132.381 125.672C132.381 124.07 132.168 122.682 131.742 121.507C131.329 120.332 130.715 119.422 129.902 118.776C129.101 118.13 128.113 117.807 126.938 117.807C125.776 117.807 124.788 118.124 123.975 118.757C123.161 119.389 122.535 120.293 122.096 121.468C121.67 122.643 121.457 124.045 121.457 125.672ZM145.782 140.548V135.143L159.574 118.35V118.156H146.266V110.796H170.866V116.723L158.082 132.993V133.187H171.331V140.548H145.782Z" fill="white"/>
<defs>
<linearGradient id="paint0_linear_1_12" x1="87.5" y1="0" x2="87.5" y2="78.5477" gradientUnits="userSpaceOnUse">
<stop offset="0.545085" stop-color="#FFC700"/>
<stop offset="0.82634" stop-color="#FF6B00"/>
</linearGradient>
</defs>
</svg>
